<mxfile host="app.diagrams.net" modified="2024-05-07T13:55:14.058Z" agent="Mozilla/5.0 (Windows NT 10.0; Win64; x64) AppleWebKit/537.36 (KHTML, like Gecko) Chrome/123.0.0.0 Safari/537.36 Edg/123.0.0.0" etag="IwJ2rdnbZNgwHJ8SzO12" version="24.2.2" type="github" pages="2">
  <diagram name="Page-1" id="Y3MSRMU1QuGR4138dJbL">
    <mxGraphModel dx="1002" dy="577" grid="0" gridSize="10" guides="1" tooltips="1" connect="1" arrows="1" fold="1" page="1" pageScale="1" pageWidth="827" pageHeight="1169" math="0" shadow="0">
      <root>
        <mxCell id="0" />
        <mxCell id="1" parent="0" />
        <mxCell id="XcS65sXRcS4xSGwp1r07-15" value="Search Terms" style="swimlane;whiteSpace=wrap;html=1;dashed=1;" parent="1" vertex="1">
          <mxGeometry x="72" y="488" width="164" height="237" as="geometry" />
        </mxCell>
        <mxCell id="XcS65sXRcS4xSGwp1r07-34" value="&lt;ul&gt;&lt;li&gt;&#39;prediction&#39; AND &#39;construction project&#39; AND &#39;machine learning&#39;&lt;br&gt;&lt;/li&gt;&lt;li&gt;&#39;performance&lt;br&gt;prediction&#39; AND &#39;project&#39; AND &#39;machine learning&#39;&lt;br&gt;&lt;/li&gt;&lt;li&gt;&#39;project&lt;br/&gt;cost&#39; AND &#39;prediction&#39; AND &#39;machine learning&#39;&lt;br&gt;&lt;/li&gt;&lt;li&gt;&#39;project&lt;br/&gt;duration&#39; AND &#39;prediction&#39; AND &#39;machine learning&#39;&lt;br&gt;&lt;/li&gt;&lt;/ul&gt;" style="text;strokeColor=none;fillColor=none;html=1;whiteSpace=wrap;verticalAlign=middle;overflow=hidden;" parent="XcS65sXRcS4xSGwp1r07-15" vertex="1">
          <mxGeometry x="-16" y="23" width="172" height="204" as="geometry" />
        </mxCell>
        <mxCell id="XcS65sXRcS4xSGwp1r07-16" value="Searching the Literature" style="swimlane;whiteSpace=wrap;html=1;startSize=23;dashed=1;" parent="1" vertex="1">
          <mxGeometry x="236" y="488" width="163" height="237" as="geometry" />
        </mxCell>
        <mxCell id="XcS65sXRcS4xSGwp1r07-21" value="IEEE&lt;br&gt;n=403" style="rounded=1;whiteSpace=wrap;html=1;" parent="XcS65sXRcS4xSGwp1r07-16" vertex="1">
          <mxGeometry x="24" y="170" width="120" height="54" as="geometry" />
        </mxCell>
        <mxCell id="XcS65sXRcS4xSGwp1r07-22" value="Web of Science&lt;br&gt;n=469" style="rounded=1;whiteSpace=wrap;html=1;" parent="XcS65sXRcS4xSGwp1r07-16" vertex="1">
          <mxGeometry x="24" y="99" width="120" height="57" as="geometry" />
        </mxCell>
        <mxCell id="XcS65sXRcS4xSGwp1r07-23" value="Scopus&lt;br&gt;n=762" style="rounded=1;whiteSpace=wrap;html=1;" parent="XcS65sXRcS4xSGwp1r07-16" vertex="1">
          <mxGeometry x="24" y="31" width="120" height="54" as="geometry" />
        </mxCell>
        <mxCell id="XcS65sXRcS4xSGwp1r07-20" value="Screening" style="swimlane;whiteSpace=wrap;html=1;dashed=1;" parent="1" vertex="1">
          <mxGeometry x="399" y="488" width="314" height="237" as="geometry" />
        </mxCell>
        <mxCell id="XcS65sXRcS4xSGwp1r07-38" value="" style="endArrow=none;html=1;rounded=0;exitX=1;exitY=0.5;exitDx=0;exitDy=0;" parent="XcS65sXRcS4xSGwp1r07-20" source="XcS65sXRcS4xSGwp1r07-22" edge="1">
          <mxGeometry width="50" height="50" relative="1" as="geometry">
            <mxPoint x="-19" y="135" as="sourcePoint" />
            <mxPoint x="12" y="128" as="targetPoint" />
            <Array as="points" />
          </mxGeometry>
        </mxCell>
        <mxCell id="XcS65sXRcS4xSGwp1r07-27" value="Total literature&lt;br&gt;n=1607" style="rounded=1;whiteSpace=wrap;html=1;" parent="XcS65sXRcS4xSGwp1r07-20" vertex="1">
          <mxGeometry x="31" y="31" width="120" height="54" as="geometry" />
        </mxCell>
        <mxCell id="XcS65sXRcS4xSGwp1r07-48" value="" style="edgeStyle=orthogonalEdgeStyle;rounded=0;orthogonalLoop=1;jettySize=auto;html=1;" parent="XcS65sXRcS4xSGwp1r07-20" source="XcS65sXRcS4xSGwp1r07-41" target="XcS65sXRcS4xSGwp1r07-43" edge="1">
          <mxGeometry relative="1" as="geometry" />
        </mxCell>
        <mxCell id="XcS65sXRcS4xSGwp1r07-41" value="Remove Duplicates&lt;br&gt;n=1423" style="rounded=0;whiteSpace=wrap;html=1;" parent="XcS65sXRcS4xSGwp1r07-20" vertex="1">
          <mxGeometry x="28" y="101" width="126" height="39" as="geometry" />
        </mxCell>
        <mxCell id="XcS65sXRcS4xSGwp1r07-42" value="" style="endArrow=classic;html=1;rounded=0;exitX=0.5;exitY=1;exitDx=0;exitDy=0;entryX=0.5;entryY=0;entryDx=0;entryDy=0;" parent="XcS65sXRcS4xSGwp1r07-20" source="XcS65sXRcS4xSGwp1r07-27" target="XcS65sXRcS4xSGwp1r07-41" edge="1">
          <mxGeometry width="50" height="50" relative="1" as="geometry">
            <mxPoint x="-38" y="280" as="sourcePoint" />
            <mxPoint x="12" y="230" as="targetPoint" />
          </mxGeometry>
        </mxCell>
        <mxCell id="XcS65sXRcS4xSGwp1r07-55" style="edgeStyle=orthogonalEdgeStyle;rounded=0;orthogonalLoop=1;jettySize=auto;html=1;entryX=0.5;entryY=1;entryDx=0;entryDy=0;" parent="XcS65sXRcS4xSGwp1r07-20" source="XcS65sXRcS4xSGwp1r07-43" target="XcS65sXRcS4xSGwp1r07-45" edge="1">
          <mxGeometry relative="1" as="geometry">
            <mxPoint x="113" y="229" as="targetPoint" />
            <Array as="points">
              <mxPoint x="91" y="222" />
              <mxPoint x="240" y="222" />
            </Array>
          </mxGeometry>
        </mxCell>
        <mxCell id="XcS65sXRcS4xSGwp1r07-43" value="Remove non-journal items&lt;br&gt;n=847" style="rounded=0;whiteSpace=wrap;html=1;" parent="XcS65sXRcS4xSGwp1r07-20" vertex="1">
          <mxGeometry x="28" y="161" width="126" height="50" as="geometry" />
        </mxCell>
        <mxCell id="XcS65sXRcS4xSGwp1r07-57" value="" style="edgeStyle=orthogonalEdgeStyle;rounded=0;orthogonalLoop=1;jettySize=auto;html=1;" parent="XcS65sXRcS4xSGwp1r07-20" source="XcS65sXRcS4xSGwp1r07-45" target="XcS65sXRcS4xSGwp1r07-56" edge="1">
          <mxGeometry relative="1" as="geometry" />
        </mxCell>
        <mxCell id="XcS65sXRcS4xSGwp1r07-45" value="Inclusion and Exclusion Criteria&lt;br&gt;n=89" style="rounded=0;whiteSpace=wrap;html=1;" parent="XcS65sXRcS4xSGwp1r07-20" vertex="1">
          <mxGeometry x="183" y="145" width="113" height="55" as="geometry" />
        </mxCell>
        <mxCell id="XcS65sXRcS4xSGwp1r07-56" value="Title, Abstract and Context Analysis&lt;br&gt;n=62" style="whiteSpace=wrap;html=1;rounded=0;" parent="XcS65sXRcS4xSGwp1r07-20" vertex="1">
          <mxGeometry x="179.5" y="67" width="120" height="53" as="geometry" />
        </mxCell>
        <mxCell id="XcS65sXRcS4xSGwp1r07-24" value="Body of Literature" style="swimlane;whiteSpace=wrap;html=1;dashed=1;" parent="1" vertex="1">
          <mxGeometry x="713" y="488" width="164" height="237" as="geometry" />
        </mxCell>
        <mxCell id="XcS65sXRcS4xSGwp1r07-58" value="Literature Pool&lt;br&gt;n=62" style="rounded=1;whiteSpace=wrap;html=1;" parent="XcS65sXRcS4xSGwp1r07-24" vertex="1">
          <mxGeometry x="27" y="88.5" width="120" height="60" as="geometry" />
        </mxCell>
        <mxCell id="XcS65sXRcS4xSGwp1r07-59" value="" style="edgeStyle=orthogonalEdgeStyle;rounded=0;orthogonalLoop=1;jettySize=auto;html=1;" parent="1" source="XcS65sXRcS4xSGwp1r07-56" target="XcS65sXRcS4xSGwp1r07-58" edge="1">
          <mxGeometry relative="1" as="geometry" />
        </mxCell>
        <mxCell id="hQWmsBoflfajF91AkxQe-1" value="Searching Literature Pool" style="swimlane;whiteSpace=wrap;html=1;startSize=23;strokeColor=#371515;dashed=1;dashPattern=1 2;" parent="1" vertex="1">
          <mxGeometry x="28" y="171" width="223" height="296" as="geometry">
            <mxRectangle x="28" y="183" width="181" height="26" as="alternateBounds" />
          </mxGeometry>
        </mxCell>
        <mxCell id="hQWmsBoflfajF91AkxQe-2" value="Artificial Intelligence&lt;br&gt;n=2555" style="rounded=1;whiteSpace=wrap;html=1;" parent="hQWmsBoflfajF91AkxQe-1" vertex="1">
          <mxGeometry x="27" y="188" width="132" height="40" as="geometry" />
        </mxCell>
        <mxCell id="hQWmsBoflfajF91AkxQe-3" value="Datafication&lt;br&gt;n=9" style="rounded=1;whiteSpace=wrap;html=1;" parent="hQWmsBoflfajF91AkxQe-1" vertex="1">
          <mxGeometry x="27" y="139" width="132" height="40" as="geometry" />
        </mxCell>
        <mxCell id="hQWmsBoflfajF91AkxQe-4" value="Machine Learning&lt;br&gt;n=1702" style="rounded=1;whiteSpace=wrap;html=1;" parent="hQWmsBoflfajF91AkxQe-1" vertex="1">
          <mxGeometry x="27" y="41" width="132" height="40" as="geometry" />
        </mxCell>
        <mxCell id="hQWmsBoflfajF91AkxQe-21" value="Data Analytics&lt;br&gt;n=934" style="rounded=1;whiteSpace=wrap;html=1;" parent="hQWmsBoflfajF91AkxQe-1" vertex="1">
          <mxGeometry x="27" y="91" width="132" height="40" as="geometry" />
        </mxCell>
        <mxCell id="hQWmsBoflfajF91AkxQe-23" value="Digital Transformation&lt;br&gt;n=599" style="rounded=1;whiteSpace=wrap;html=1;" parent="hQWmsBoflfajF91AkxQe-1" vertex="1">
          <mxGeometry x="27" y="237" width="132" height="40" as="geometry" />
        </mxCell>
        <mxCell id="hQWmsBoflfajF91AkxQe-7" value="Screening and Selecting" style="swimlane;whiteSpace=wrap;html=1;dashed=1;dashPattern=1 2;" parent="1" vertex="1">
          <mxGeometry x="251" y="171" width="322" height="296" as="geometry" />
        </mxCell>
        <mxCell id="hQWmsBoflfajF91AkxQe-9" value="Total Literature&lt;br&gt;n=5772" style="rounded=1;whiteSpace=wrap;html=1;" parent="hQWmsBoflfajF91AkxQe-7" vertex="1">
          <mxGeometry x="34" y="47" width="120" height="55" as="geometry" />
        </mxCell>
        <mxCell id="hQWmsBoflfajF91AkxQe-10" value="" style="edgeStyle=orthogonalEdgeStyle;rounded=0;orthogonalLoop=1;jettySize=auto;html=1;" parent="hQWmsBoflfajF91AkxQe-7" source="hQWmsBoflfajF91AkxQe-11" target="hQWmsBoflfajF91AkxQe-14" edge="1">
          <mxGeometry relative="1" as="geometry" />
        </mxCell>
        <mxCell id="hQWmsBoflfajF91AkxQe-11" value="Remove Duplicates&lt;br&gt;n=4402" style="rounded=0;whiteSpace=wrap;html=1;" parent="hQWmsBoflfajF91AkxQe-7" vertex="1">
          <mxGeometry x="34" y="135" width="120" height="55" as="geometry" />
        </mxCell>
        <mxCell id="hQWmsBoflfajF91AkxQe-12" value="" style="endArrow=classic;html=1;rounded=0;exitX=0.5;exitY=1;exitDx=0;exitDy=0;entryX=0.5;entryY=0;entryDx=0;entryDy=0;" parent="hQWmsBoflfajF91AkxQe-7" source="hQWmsBoflfajF91AkxQe-9" target="hQWmsBoflfajF91AkxQe-11" edge="1">
          <mxGeometry width="50" height="50" relative="1" as="geometry">
            <mxPoint x="-38" y="280" as="sourcePoint" />
            <mxPoint x="12" y="230" as="targetPoint" />
          </mxGeometry>
        </mxCell>
        <mxCell id="hQWmsBoflfajF91AkxQe-14" value="Inclusion and Exclusion Criteria&lt;br&gt;n=247" style="rounded=0;whiteSpace=wrap;html=1;" parent="hQWmsBoflfajF91AkxQe-7" vertex="1">
          <mxGeometry x="34" y="219" width="120" height="50" as="geometry" />
        </mxCell>
        <mxCell id="hQWmsBoflfajF91AkxQe-16" value="Title, Abstract and Context Analysis&lt;br&gt;n=59" style="rounded=0;whiteSpace=wrap;html=1;" parent="hQWmsBoflfajF91AkxQe-7" vertex="1">
          <mxGeometry x="179.5" y="158" width="120" height="55" as="geometry" />
        </mxCell>
        <mxCell id="hQWmsBoflfajF91AkxQe-17" value="Supplementary Literature&lt;br&gt;n=9" style="whiteSpace=wrap;html=1;rounded=0;" parent="hQWmsBoflfajF91AkxQe-7" vertex="1">
          <mxGeometry x="179.5" y="72" width="120" height="55" as="geometry" />
        </mxCell>
        <mxCell id="hQWmsBoflfajF91AkxQe-29" value="" style="edgeStyle=orthogonalEdgeStyle;rounded=0;orthogonalLoop=1;jettySize=auto;html=1;entryX=0.5;entryY=1;entryDx=0;entryDy=0;" parent="hQWmsBoflfajF91AkxQe-7" source="hQWmsBoflfajF91AkxQe-14" target="hQWmsBoflfajF91AkxQe-16" edge="1">
          <mxGeometry relative="1" as="geometry" />
        </mxCell>
        <mxCell id="hQWmsBoflfajF91AkxQe-18" value="Reviewed Literature" style="swimlane;whiteSpace=wrap;html=1;dashed=1;dashPattern=1 2;" parent="1" vertex="1">
          <mxGeometry x="573" y="171" width="174" height="296" as="geometry">
            <mxRectangle x="565" y="183" width="174" height="26" as="alternateBounds" />
          </mxGeometry>
        </mxCell>
        <mxCell id="hQWmsBoflfajF91AkxQe-19" value="Included &lt;br&gt;Literature&lt;br&gt;n=68" style="rounded=1;whiteSpace=wrap;html=1;" parent="hQWmsBoflfajF91AkxQe-18" vertex="1">
          <mxGeometry x="50" y="111" width="100" height="60" as="geometry" />
        </mxCell>
        <mxCell id="hQWmsBoflfajF91AkxQe-24" style="edgeStyle=orthogonalEdgeStyle;rounded=0;orthogonalLoop=1;jettySize=auto;html=1;exitX=1;exitY=0.5;exitDx=0;exitDy=0;entryX=0;entryY=0.5;entryDx=0;entryDy=0;" parent="1" source="hQWmsBoflfajF91AkxQe-23" target="hQWmsBoflfajF91AkxQe-9" edge="1">
          <mxGeometry relative="1" as="geometry">
            <Array as="points">
              <mxPoint x="226" y="428" />
              <mxPoint x="226" y="246" />
            </Array>
          </mxGeometry>
        </mxCell>
        <mxCell id="hQWmsBoflfajF91AkxQe-25" value="" style="edgeStyle=orthogonalEdgeStyle;rounded=0;orthogonalLoop=1;jettySize=auto;html=1;entryX=0;entryY=0.5;entryDx=0;entryDy=0;" parent="1" source="hQWmsBoflfajF91AkxQe-3" target="hQWmsBoflfajF91AkxQe-9" edge="1">
          <mxGeometry relative="1" as="geometry">
            <Array as="points">
              <mxPoint x="226" y="330" />
              <mxPoint x="226" y="246" />
            </Array>
          </mxGeometry>
        </mxCell>
        <mxCell id="hQWmsBoflfajF91AkxQe-26" value="" style="edgeStyle=orthogonalEdgeStyle;rounded=0;orthogonalLoop=1;jettySize=auto;html=1;entryX=0;entryY=0.5;entryDx=0;entryDy=0;" parent="1" source="hQWmsBoflfajF91AkxQe-21" target="hQWmsBoflfajF91AkxQe-9" edge="1">
          <mxGeometry relative="1" as="geometry">
            <Array as="points">
              <mxPoint x="226" y="282" />
              <mxPoint x="226" y="246" />
            </Array>
          </mxGeometry>
        </mxCell>
        <mxCell id="hQWmsBoflfajF91AkxQe-27" value="" style="edgeStyle=orthogonalEdgeStyle;rounded=0;orthogonalLoop=1;jettySize=auto;html=1;" parent="1" source="hQWmsBoflfajF91AkxQe-4" target="hQWmsBoflfajF91AkxQe-9" edge="1">
          <mxGeometry relative="1" as="geometry">
            <Array as="points">
              <mxPoint x="226" y="232" />
              <mxPoint x="226" y="246" />
            </Array>
          </mxGeometry>
        </mxCell>
        <mxCell id="hQWmsBoflfajF91AkxQe-5" value="" style="edgeStyle=elbowEdgeStyle;elbow=horizontal;endArrow=classic;html=1;curved=0;rounded=0;endSize=8;startSize=8;exitX=1;exitY=0.5;exitDx=0;exitDy=0;entryX=0;entryY=0.5;entryDx=0;entryDy=0;" parent="1" source="hQWmsBoflfajF91AkxQe-2" target="hQWmsBoflfajF91AkxQe-9" edge="1">
          <mxGeometry width="50" height="50" relative="1" as="geometry">
            <mxPoint x="176" y="386" as="sourcePoint" />
            <mxPoint x="281" y="242" as="targetPoint" />
            <Array as="points">
              <mxPoint x="226" y="312" />
            </Array>
          </mxGeometry>
        </mxCell>
        <mxCell id="VTWFtEZp2pz49vTFSIZZ-14" value="" style="edgeStyle=elbowEdgeStyle;rounded=0;orthogonalLoop=1;jettySize=auto;html=1;fontSize=12;startSize=8;endSize=8;" parent="1" source="hQWmsBoflfajF91AkxQe-17" target="hQWmsBoflfajF91AkxQe-19" edge="1">
          <mxGeometry relative="1" as="geometry" />
        </mxCell>
        <mxCell id="VTWFtEZp2pz49vTFSIZZ-15" value="" style="edgeStyle=elbowEdgeStyle;rounded=0;orthogonalLoop=1;jettySize=auto;html=1;fontSize=12;startSize=8;endSize=8;" parent="1" source="hQWmsBoflfajF91AkxQe-16" target="hQWmsBoflfajF91AkxQe-19" edge="1">
          <mxGeometry relative="1" as="geometry" />
        </mxCell>
        <mxCell id="ZbrKUcJNRZKVWb5khYfl-2" value="" style="endArrow=none;html=1;rounded=0;exitX=1;exitY=0.5;exitDx=0;exitDy=0;" edge="1" parent="1" source="XcS65sXRcS4xSGwp1r07-23" target="XcS65sXRcS4xSGwp1r07-27">
          <mxGeometry width="50" height="50" relative="1" as="geometry">
            <mxPoint x="487" y="506" as="sourcePoint" />
            <mxPoint x="537" y="456" as="targetPoint" />
          </mxGeometry>
        </mxCell>
        <mxCell id="XcS65sXRcS4xSGwp1r07-35" value="" style="edgeStyle=elbowEdgeStyle;elbow=horizontal;endArrow=classic;html=1;curved=0;rounded=0;endSize=8;startSize=8;exitX=1;exitY=0.5;exitDx=0;exitDy=0;entryX=0;entryY=0.5;entryDx=0;entryDy=0;" parent="1" source="XcS65sXRcS4xSGwp1r07-21" edge="1" target="XcS65sXRcS4xSGwp1r07-27">
          <mxGeometry width="50" height="50" relative="1" as="geometry">
            <mxPoint x="384" y="691" as="sourcePoint" />
            <mxPoint x="429" y="545" as="targetPoint" />
            <Array as="points">
              <mxPoint x="412" y="612" />
            </Array>
          </mxGeometry>
        </mxCell>
      </root>
    </mxGraphModel>
  </diagram>
  <diagram id="vEAAp5H_wWVbeyviqGUY" name="Page-2">
    <mxGraphModel dx="680" dy="783" grid="1" gridSize="10" guides="1" tooltips="1" connect="1" arrows="1" fold="1" page="1" pageScale="1" pageWidth="827" pageHeight="1169" math="0" shadow="0">
      <root>
        <mxCell id="0" />
        <mxCell id="1" parent="0" />
      </root>
    </mxGraphModel>
  </diagram>
</mxfile>
